<svg fill="none" viewBox="0 0 145 25" xmlns="http://www.w3.org/2000/svg"><g fill="#f7da3e"><path d="m12.5 2.32812 3.09 6.26001 6.91 1.01-5 4.86997 1.18 6.88-6.18-3.25-6.18 3.25 1.18-6.88-5-4.86997 6.91-1.01z"/><path d="m42.5 2.32812 3.09 6.26001 6.91 1.01-5 4.86997 1.18 6.88-6.18-3.25-6.18 3.25 1.18-6.88-5-4.86997 6.91-1.01z"/><path d="m72.5 2.32812 3.09 6.26001 6.91 1.01-5 4.86997 1.18 6.88-6.18-3.25-6.18 3.25 1.18-6.88-5-4.86997 6.91-1.01z"/><path d="m102.5 2.32812 3.09 6.26001 6.91 1.01-5 4.86997 1.18 6.88-6.18-3.25-6.18 3.25 1.18-6.88-5-4.86997 6.91-1.01z"/><path d="m132.5 2.32812 3.09 6.26001 6.91 1.01-5 4.86997 1.18 6.88-6.18-3.25-6.18 3.25 1.18-6.88-5-4.86997 6.91-1.01z"/></g></svg>